<svg width="18" height="12" viewBox="0 0 18 12" fill="none" xmlns="http://www.w3.org/2000/svg">
<path d="M1.32761 7.82368C2.10396 4.09561 5.34937 1.44669 9.00003 1.44669C12.6496 1.44669 15.895 4.09561 16.6725 7.82368C16.7033 7.97162 16.7916 8.10126 16.9179 8.18409C17.0443 8.26692 17.1984 8.29615 17.3464 8.26536C17.4943 8.23457 17.6239 8.14627 17.7068 8.01989C17.7896 7.89351 17.8188 7.7394 17.788 7.59146C16.9035 3.35114 13.2039 0.30835 9.00003 0.30835C4.79614 0.30835 1.09652 3.35114 0.212032 7.59146C0.181238 7.7394 0.210471 7.89351 0.293302 8.01989C0.376132 8.14627 0.505775 8.23457 0.653709 8.26536C0.801643 8.29615 0.955752 8.26692 1.08213 8.18409C1.20851 8.10126 1.29681 7.97162 1.32761 7.82368ZM8.98865 3.72338C10.0453 3.72338 11.0587 4.14314 11.8059 4.89032C12.5531 5.6375 12.9728 6.6509 12.9728 7.70757C12.9728 8.76425 12.5531 9.77764 11.8059 10.5248C11.0587 11.272 10.0453 11.6918 8.98865 11.6918C7.93197 11.6918 6.91858 11.272 6.1714 10.5248C5.42421 9.77764 5.00445 8.76425 5.00445 7.70757C5.00445 6.6509 5.42421 5.6375 6.1714 4.89032C6.91858 4.14314 7.93197 3.72338 8.98865 3.72338Z" fill="#6A707C"/>
</svg>
